<?xml version="1.0" standalone="no"?><!DOCTYPE svg PUBLIC "-//W3C//DTD SVG 1.1//EN" "http://www.w3.org/Graphics/SVG/1.1/DTD/svg11.dtd"><svg t="1604317863751" class="icon" viewBox="0 0 1024 1024" version="1.1" xmlns="http://www.w3.org/2000/svg" p-id="3857" xmlns:xlink="http://www.w3.org/1999/xlink" width="81" height="81"><defs><style type="text/css"></style></defs><path d="M512 938.666667C277.333333 938.666667 85.333333 746.666667 85.333333 512 85.333333 277.333333 277.333333 85.333333 512 85.333333s426.666667 192 426.666667 426.666667C938.666667 746.666667 746.666667 938.666667 512 938.666667zM512 128C300.8 128 128 300.8 128 512c0 211.2 172.8 384 384 384 211.2 0 384-172.8 384-384C896 300.8 723.2 128 512 128zM471.466667 678.4c-8.533333 8.533333-21.333333 8.533333-29.866667 0l-151.466667-151.466667c-8.533333-8.533333-8.533333-21.333333 0-29.866667 8.533333-8.533333 21.333333-8.533333 29.866667 0l136.533333 136.533333L682.666667 405.333333c8.533333-8.533333 21.333333-8.533333 29.866667 0 8.533333 8.533333 8.533333 21.333333 0 29.866667L471.466667 678.4z" p-id="3858"></path></svg>